<svg width="20" height="17" viewBox="0 0 20 17" fill="none" xmlns="http://www.w3.org/2000/svg">
<path d="M17.2517 10.2669C17.1569 9.5997 16.6429 9.07872 15.9802 8.92245C13.4044 8.31351 12.7612 6.82828 12.6554 5.18207C12.1986 5.0962 11.3857 5.00264 10.0057 5C8.62575 4.99736 7.81257 5.0878 7.35541 5.17193C7.24326 6.81772 6.59442 8.30048 4.01627 8.89954C3.35297 9.05427 2.83698 9.57229 2.7397 10.2391L2.23611 13.6801C2.05879 14.8918 2.9467 15.9865 4.18469 15.9889L15.7847 16.0111C17.0217 16.0135 17.9148 14.9222 17.7421 13.7098L17.2517 10.2669ZM9.98949 13.492C8.59449 13.4893 7.46563 12.3672 7.46828 10.9872C7.47092 9.60716 8.60406 8.48932 9.99906 8.492C11.3941 8.49467 12.5229 9.61683 12.5203 10.9968C12.5176 12.3768 11.3835 13.4947 9.98949 13.492ZM19.9576 4.01905C19.9365 2.51901 16.1233 0.0127045 10.0153 1.12715e-05C3.90632 -0.0106839 0.0835471 2.481 0.0576756 3.98096C0.031804 5.48091 0.072067 7.43299 2.58668 7.1128C5.52841 6.73743 5.34937 5.71009 5.35218 4.24209C5.35415 3.21809 7.74661 2.97567 10.0096 2.98001C12.2726 2.98434 14.6631 3.23591 14.6622 4.25991C14.6594 5.72791 14.4764 6.75456 17.4167 7.14119C19.929 7.471 19.9778 5.51909 19.9576 4.01905Z" fill="#333333"/>
</svg>
